<mxfile host="app.diagrams.net" modified="2022-04-15T12:33:02.936Z" agent="5.0 (Windows NT 10.0; Win64; x64) AppleWebKit/537.36 (KHTML, like Gecko) Chrome/99.0.4844.51 Safari/537.36" etag="4CFBzIpfnoNHCkDi57qK" version="17.1.3" type="github">
  <diagram name="Page-1" id="e3a06f82-3646-2815-327d-82caf3d4e204">
    <mxGraphModel dx="1056" dy="566" grid="1" gridSize="10" guides="1" tooltips="1" connect="1" arrows="1" fold="1" page="1" pageScale="1.5" pageWidth="1169" pageHeight="826" background="none" math="0" shadow="0">
      <root>
        <mxCell id="0" style=";html=1;" />
        <mxCell id="1" style=";html=1;" parent="0" />
        <mxCell id="wnISRxBY5JCJOKAd4Pnm-1" value="Tomcat服务器" style="verticalLabelPosition=bottom;sketch=0;aspect=fixed;html=1;verticalAlign=top;strokeColor=none;align=center;outlineConnect=0;shape=mxgraph.citrix.web_server;" vertex="1" parent="1">
          <mxGeometry x="310" y="580" width="76.5" height="90" as="geometry" />
        </mxCell>
        <mxCell id="wnISRxBY5JCJOKAd4Pnm-2" value="Tomcat服务器" style="verticalLabelPosition=bottom;sketch=0;aspect=fixed;html=1;verticalAlign=top;strokeColor=none;align=center;outlineConnect=0;shape=mxgraph.citrix.web_server;" vertex="1" parent="1">
          <mxGeometry x="620" y="580" width="76.5" height="90" as="geometry" />
        </mxCell>
        <mxCell id="wnISRxBY5JCJOKAd4Pnm-3" value="Mysql数据库" style="verticalLabelPosition=bottom;sketch=0;aspect=fixed;html=1;verticalAlign=top;strokeColor=none;align=center;outlineConnect=0;shape=mxgraph.citrix.database_server;" vertex="1" parent="1">
          <mxGeometry x="550" y="740" width="80" height="90" as="geometry" />
        </mxCell>
        <mxCell id="wnISRxBY5JCJOKAd4Pnm-4" value="Redis缓存服务器" style="verticalLabelPosition=bottom;sketch=0;aspect=fixed;html=1;verticalAlign=top;strokeColor=none;align=center;outlineConnect=0;shape=mxgraph.citrix.cache_server;" vertex="1" parent="1">
          <mxGeometry x="372.75" y="740" width="71" height="97.5" as="geometry" />
        </mxCell>
        <mxCell id="wnISRxBY5JCJOKAd4Pnm-7" value="Nginx" style="verticalLabelPosition=bottom;sketch=0;aspect=fixed;html=1;verticalAlign=top;strokeColor=none;align=center;outlineConnect=0;shape=mxgraph.citrix.dns_server;" vertex="1" parent="1">
          <mxGeometry x="463.5" y="390" width="76.5" height="92.5" as="geometry" />
        </mxCell>
        <mxCell id="wnISRxBY5JCJOKAd4Pnm-12" value="" style="endArrow=none;html=1;rounded=0;" edge="1" parent="1" source="wnISRxBY5JCJOKAd4Pnm-1" target="wnISRxBY5JCJOKAd4Pnm-7">
          <mxGeometry width="50" height="50" relative="1" as="geometry">
            <mxPoint x="310" y="520" as="sourcePoint" />
            <mxPoint x="360" y="470" as="targetPoint" />
          </mxGeometry>
        </mxCell>
        <mxCell id="wnISRxBY5JCJOKAd4Pnm-13" value="" style="endArrow=none;html=1;rounded=0;" edge="1" parent="1" source="wnISRxBY5JCJOKAd4Pnm-2" target="wnISRxBY5JCJOKAd4Pnm-7">
          <mxGeometry width="50" height="50" relative="1" as="geometry">
            <mxPoint x="560" y="540" as="sourcePoint" />
            <mxPoint x="610" y="490" as="targetPoint" />
          </mxGeometry>
        </mxCell>
        <mxCell id="wnISRxBY5JCJOKAd4Pnm-14" value="" style="endArrow=none;html=1;rounded=0;" edge="1" parent="1" source="wnISRxBY5JCJOKAd4Pnm-4" target="wnISRxBY5JCJOKAd4Pnm-1">
          <mxGeometry width="50" height="50" relative="1" as="geometry">
            <mxPoint x="170" y="710" as="sourcePoint" />
            <mxPoint x="220" y="660" as="targetPoint" />
          </mxGeometry>
        </mxCell>
        <mxCell id="wnISRxBY5JCJOKAd4Pnm-15" value="" style="endArrow=none;html=1;rounded=0;" edge="1" parent="1" source="wnISRxBY5JCJOKAd4Pnm-3" target="wnISRxBY5JCJOKAd4Pnm-1">
          <mxGeometry width="50" height="50" relative="1" as="geometry">
            <mxPoint x="460" y="780" as="sourcePoint" />
            <mxPoint x="510" y="730" as="targetPoint" />
          </mxGeometry>
        </mxCell>
        <mxCell id="wnISRxBY5JCJOKAd4Pnm-16" value="" style="endArrow=none;html=1;rounded=0;" edge="1" parent="1" source="wnISRxBY5JCJOKAd4Pnm-4" target="wnISRxBY5JCJOKAd4Pnm-2">
          <mxGeometry width="50" height="50" relative="1" as="geometry">
            <mxPoint x="220" y="750" as="sourcePoint" />
            <mxPoint x="270" y="700" as="targetPoint" />
          </mxGeometry>
        </mxCell>
        <mxCell id="wnISRxBY5JCJOKAd4Pnm-17" value="" style="endArrow=none;html=1;rounded=0;" edge="1" parent="1" source="wnISRxBY5JCJOKAd4Pnm-3" target="wnISRxBY5JCJOKAd4Pnm-2">
          <mxGeometry width="50" height="50" relative="1" as="geometry">
            <mxPoint x="500" y="840" as="sourcePoint" />
            <mxPoint x="550" y="790" as="targetPoint" />
          </mxGeometry>
        </mxCell>
        <mxCell id="wnISRxBY5JCJOKAd4Pnm-18" value="第三方云服务" style="verticalLabelPosition=bottom;sketch=0;aspect=fixed;html=1;verticalAlign=top;strokeColor=none;align=center;outlineConnect=0;shape=mxgraph.citrix.cloud;" vertex="1" parent="1">
          <mxGeometry x="454.25" y="589" width="95" height="62" as="geometry" />
        </mxCell>
        <mxCell id="wnISRxBY5JCJOKAd4Pnm-19" value="" style="endArrow=none;html=1;rounded=0;" edge="1" parent="1" source="wnISRxBY5JCJOKAd4Pnm-1" target="wnISRxBY5JCJOKAd4Pnm-18">
          <mxGeometry width="50" height="50" relative="1" as="geometry">
            <mxPoint x="150" y="580" as="sourcePoint" />
            <mxPoint x="200" y="530" as="targetPoint" />
          </mxGeometry>
        </mxCell>
        <mxCell id="wnISRxBY5JCJOKAd4Pnm-20" value="" style="endArrow=none;html=1;rounded=0;" edge="1" parent="1" source="wnISRxBY5JCJOKAd4Pnm-18" target="wnISRxBY5JCJOKAd4Pnm-2">
          <mxGeometry width="50" height="50" relative="1" as="geometry">
            <mxPoint x="220" y="590" as="sourcePoint" />
            <mxPoint x="270" y="540" as="targetPoint" />
          </mxGeometry>
        </mxCell>
      </root>
    </mxGraphModel>
  </diagram>
</mxfile>
